<?xml version="1.0" encoding="UTF-8" standalone="no"?>
<!-- Created with Inkscape (http://www.inkscape.org/) -->

<svg
   xmlns:dc="http://purl.org/dc/elements/1.1/"
   xmlns:cc="http://creativecommons.org/ns#"
   xmlns:rdf="http://www.w3.org/1999/02/22-rdf-syntax-ns#"
   xmlns:svg="http://www.w3.org/2000/svg"
   xmlns="http://www.w3.org/2000/svg"
   xmlns:sodipodi="http://sodipodi.sourceforge.net/DTD/sodipodi-0.dtd"
   xmlns:inkscape="http://www.inkscape.org/namespaces/inkscape"
   width="210mm"
   height="297mm"
   id="svg2"
   version="1.1"
   inkscape:version="0.47 r22583"
   sodipodi:docname="ant.svg">
  <defs
     id="defs4">
    <inkscape:perspective
       sodipodi:type="inkscape:persp3d"
       inkscape:vp_x="0 : 526.18109 : 1"
       inkscape:vp_y="0 : 1000 : 0"
       inkscape:vp_z="744.09448 : 526.18109 : 1"
       inkscape:persp3d-origin="372.04724 : 350.78739 : 1"
       id="perspective10" />
    <inkscape:perspective
       id="perspective3760"
       inkscape:persp3d-origin="0.5 : 0.33333333 : 1"
       inkscape:vp_z="1 : 0.5 : 1"
       inkscape:vp_y="0 : 1000 : 0"
       inkscape:vp_x="0 : 0.5 : 1"
       sodipodi:type="inkscape:persp3d" />
    <inkscape:perspective
       id="perspective3760-9"
       inkscape:persp3d-origin="0.5 : 0.33333333 : 1"
       inkscape:vp_z="1 : 0.5 : 1"
       inkscape:vp_y="0 : 1000 : 0"
       inkscape:vp_x="0 : 0.5 : 1"
       sodipodi:type="inkscape:persp3d" />
    <inkscape:perspective
       id="perspective3760-7"
       inkscape:persp3d-origin="0.5 : 0.33333333 : 1"
       inkscape:vp_z="1 : 0.5 : 1"
       inkscape:vp_y="0 : 1000 : 0"
       inkscape:vp_x="0 : 0.5 : 1"
       sodipodi:type="inkscape:persp3d" />
    <inkscape:perspective
       id="perspective3760-0"
       inkscape:persp3d-origin="0.5 : 0.33333333 : 1"
       inkscape:vp_z="1 : 0.5 : 1"
       inkscape:vp_y="0 : 1000 : 0"
       inkscape:vp_x="0 : 0.5 : 1"
       sodipodi:type="inkscape:persp3d" />
    <inkscape:perspective
       id="perspective3760-1"
       inkscape:persp3d-origin="0.5 : 0.33333333 : 1"
       inkscape:vp_z="1 : 0.5 : 1"
       inkscape:vp_y="0 : 1000 : 0"
       inkscape:vp_x="0 : 0.5 : 1"
       sodipodi:type="inkscape:persp3d" />
  </defs>
  <sodipodi:namedview
     id="base"
     pagecolor="#ffffff"
     bordercolor="#666666"
     borderopacity="1.0"
     inkscape:pageopacity="0.0"
     inkscape:pageshadow="2"
     inkscape:zoom="1"
     inkscape:cx="350"
     inkscape:cy="834.28571"
     inkscape:document-units="px"
     inkscape:current-layer="layer1"
     showgrid="false"
     inkscape:window-width="1088"
     inkscape:window-height="936"
     inkscape:window-x="75"
     inkscape:window-y="56"
     inkscape:window-maximized="0" />
  <metadata
     id="metadata7">
    <rdf:RDF>
      <cc:Work
         rdf:about="">
        <dc:format>image/svg+xml</dc:format>
        <dc:type
           rdf:resource="http://purl.org/dc/dcmitype/StillImage" />
        <dc:title></dc:title>
      </cc:Work>
    </rdf:RDF>
  </metadata>
  <g
     inkscape:label="Capa 1"
     inkscape:groupmode="layer"
     id="layer1">
    <g
       id="g3713"
       transform="translate(-170,-147)">
      <path
         sodipodi:nodetypes="csccccc"
         id="path2816"
         d="m 509,365.36218 c 4.78009,0.71385 -17.02621,-31.16938 -17.5,-32 -4.34027,-7.60904 -38.5653,-26.056 -46,-26 -10,-3.70803 -25.5,2.47506 -35.5,12 -7.74074,13.53704 -13.98445,30.00222 0,48 27.96853,11.40248 58.02162,14.25105 78,15 -72.12577,-48.60636 -16.37474,-2.76634 21,-17 z"
         style="fill:#0d0000;fill-opacity:1;stroke:#000000;stroke-width:1px;stroke-linecap:butt;stroke-linejoin:miter;stroke-opacity:1" />
      <path
         sodipodi:nodetypes="ccccccc"
         id="path2818"
         d="m 404,364.36218 c -16.7535,-4.94958 -37.59325,0.31647 -65,22 -20.58461,15.82244 -23.51833,38.26396 -23,62 l 22,22 c 16.50975,-7.86257 31.47672,-11.09682 53,-34 7.74503,-9.76803 36.83717,-24.2468 29,-47 l -16,-25 z"
         style="fill:#0d0000;fill-opacity:1;stroke:#000000;stroke-width:1px;stroke-linecap:butt;stroke-linejoin:miter;stroke-opacity:1" />
      <path
         sodipodi:nodetypes="ccccccc"
         id="path2820"
         d="m 314,450.36218 c -29.74456,4.27719 -59.46352,8.68239 -84,39 -21.23109,19.53834 -19.30381,47.76107 -20,75 8.07467,38.592 32.53127,60.80207 59,81 3.88429,-35.69392 9.53156,-70.40839 37,-93 l 36,-44 c 6.48408,-31.19639 -14.68613,-41.65207 -28,-58 z"
         style="fill:#0d0000;fill-opacity:1;stroke:#000000;stroke-width:1px;stroke-linecap:butt;stroke-linejoin:miter;stroke-opacity:1" />
      <path
         sodipodi:nodetypes="ccccc"
         id="path2822"
         d="M 441,329.36218 471.61402,294.4622 491,272.36218 l 36.5,23.5 16.5,42.5"
         style="fill:none;stroke:#000000;stroke-width:1.5;stroke-linecap:butt;stroke-linejoin:miter;stroke-miterlimit:4;stroke-opacity:1;stroke-dasharray:none" />
      <path
         sodipodi:nodetypes="cccc"
         id="path2824"
         d="m 433,311.36218 12,-51 59.5,-12.5 25,20.5"
         style="fill:none;stroke:#000000;stroke-width:1.5;stroke-linecap:butt;stroke-linejoin:miter;stroke-miterlimit:4;stroke-opacity:1;stroke-dasharray:none" />
      <path
         sodipodi:nodetypes="ccccc"
         id="path2826"
         d="m 456.5,332.86218 2.5,12 c 5.3161,5.0517 13.024,8.42799 20.5,6 6.56174,-6.33333 5.03481,-12.66667 1,-19 -11.33333,-4.66667 -18.83333,-4.5 -24,1 z"
         style="fill:#ffffff;fill-opacity:1;stroke:#000000;stroke-width:1px;stroke-linecap:butt;stroke-linejoin:miter;stroke-opacity:1" />
      <path
         id="path2828"
         d="m 435,335.36218 0,0 z"
         style="fill:none;stroke:#000000;stroke-width:1px;stroke-linecap:butt;stroke-linejoin:miter;stroke-opacity:1" />
      <path
         id="path2830"
         d="m 402,411.36218 83,23 32,75 0,0"
         style="fill:none;stroke:#000000;stroke-width:1.5;stroke-linecap:butt;stroke-linejoin:miter;stroke-miterlimit:4;stroke-opacity:1;stroke-dasharray:none" />
      <path
         id="path2832"
         d="m 381,430.36218 66,41 15,78 0,0"
         style="fill:none;stroke:#000000;stroke-width:1.5;stroke-linecap:butt;stroke-linejoin:miter;stroke-miterlimit:4;stroke-opacity:1;stroke-dasharray:none" />
      <path
         id="path2834"
         d="m 373.5,435.86218 2,79 -27,55 0,0"
         style="fill:none;stroke:#000000;stroke-width:1px;stroke-linecap:butt;stroke-linejoin:miter;stroke-opacity:1" />
      <path
         id="path2836"
         d="m 398,421.36218 -10,31 11,38"
         style="fill:none;stroke:#000000;stroke-width:1px;stroke-linecap:butt;stroke-linejoin:miter;stroke-opacity:1" />
      <path
         id="path2840"
         d="m 308,507.36218 13,40"
         style="fill:none;stroke:#000000;stroke-width:1px;stroke-linecap:butt;stroke-linejoin:miter;stroke-opacity:1" />
      <path
         sodipodi:end="1.4027007"
         sodipodi:start="0"
         d="m 458,346.86218 a 11,8.5 0 0 1 -9.15964,8.3802 L 447,346.86218 z"
         sodipodi:ry="8.5"
         sodipodi:rx="11"
         sodipodi:cy="346.86218"
         sodipodi:cx="447"
         id="path2846"
         style="opacity:0;fill:#06010b;fill-opacity:1;fill-rule:nonzero;stroke:#000000;stroke-width:1;stroke-linecap:butt;stroke-linejoin:miter;stroke-miterlimit:4;stroke-opacity:1;stroke-dasharray:none;stroke-dashoffset:0"
         sodipodi:type="arc" />
      <path
         id="path3632"
         d="m 439.74443,354.23713 c -2.93773,-1.12236 -7.01366,-3.61216 -8.09273,-4.94347 -0.29743,-0.36695 -1.05125,-3.07635 -1.67516,-6.02087 -1.31443,-6.20351 -1.26974,-6.33599 2.77346,-8.22101 4.01154,-1.87025 10.69066,-1.37981 16.78492,1.2325 1.98901,0.85259 2.44589,1.35373 3.62066,3.97147 2.2712,5.0609 1.52814,10.3949 -1.89622,13.61192 -1.86017,1.74754 -7.43934,1.92655 -11.51493,0.36946 z"
         style="opacity:0;fill:#000000;fill-opacity:1;fill-rule:nonzero;stroke:#000000;stroke-width:0.5;stroke-linecap:butt;stroke-linejoin:miter;stroke-miterlimit:4;stroke-opacity:1;stroke-dasharray:none;stroke-dashoffset:0" />
      <path
         id="path3634"
         d="m 439.74443,354.23713 c -2.93773,-1.12236 -7.01366,-3.61216 -8.09273,-4.94347 -0.29743,-0.36695 -1.05125,-3.07635 -1.67516,-6.02087 -1.31443,-6.20351 -1.26974,-6.33599 2.77346,-8.22101 4.01154,-1.87025 10.69066,-1.37981 16.78492,1.2325 1.98901,0.85259 2.44589,1.35373 3.62066,3.97147 2.2712,5.0609 1.52814,10.3949 -1.89622,13.61192 -1.86017,1.74754 -7.43934,1.92655 -11.51493,0.36946 z"
         style="opacity:0;fill:#000000;fill-opacity:1;fill-rule:nonzero;stroke:#000000;stroke-width:0.5;stroke-linecap:butt;stroke-linejoin:miter;stroke-miterlimit:4;stroke-opacity:1;stroke-dasharray:none;stroke-dashoffset:0" />
      <path
         id="path3636"
         d="m 439.74443,354.23713 c -2.93773,-1.12236 -7.01366,-3.61216 -8.09273,-4.94347 -0.29743,-0.36695 -1.05125,-3.07635 -1.67516,-6.02087 -1.31443,-6.20351 -1.26974,-6.33599 2.77346,-8.22101 4.01154,-1.87025 10.69066,-1.37981 16.78492,1.2325 1.98901,0.85259 2.44589,1.35373 3.62066,3.97147 2.2712,5.0609 1.52814,10.3949 -1.89622,13.61192 -1.86017,1.74754 -7.43934,1.92655 -11.51493,0.36946 z"
         style="opacity:0;fill:#000000;fill-opacity:1;fill-rule:nonzero;stroke:#000000;stroke-width:0.5;stroke-linecap:butt;stroke-linejoin:miter;stroke-miterlimit:4;stroke-opacity:1;stroke-dasharray:none;stroke-dashoffset:0" />
      <path
         id="path3638"
         d="m 439.74443,354.23713 c -2.93773,-1.12236 -7.01366,-3.61216 -8.09273,-4.94347 -0.29743,-0.36695 -1.05125,-3.07635 -1.67516,-6.02087 -1.31443,-6.20351 -1.26974,-6.33599 2.77346,-8.22101 4.01154,-1.87025 10.69066,-1.37981 16.78492,1.2325 1.98901,0.85259 2.44589,1.35373 3.62066,3.97147 2.2712,5.0609 1.52814,10.3949 -1.89622,13.61192 -1.86017,1.74754 -7.43934,1.92655 -11.51493,0.36946 z"
         style="opacity:0;fill:#000000;fill-opacity:1;fill-rule:nonzero;stroke:#000000;stroke-width:0.5;stroke-linecap:butt;stroke-linejoin:miter;stroke-miterlimit:4;stroke-opacity:1;stroke-dasharray:none;stroke-dashoffset:0" />
      <path
         id="path3640"
         d="m 439.74443,354.23713 c -2.93773,-1.12236 -7.01366,-3.61216 -8.09273,-4.94347 -0.29743,-0.36695 -1.05125,-3.07635 -1.67516,-6.02087 -1.31443,-6.20351 -1.26974,-6.33599 2.77346,-8.22101 4.01154,-1.87025 10.69066,-1.37981 16.78492,1.2325 1.98901,0.85259 2.44589,1.35373 3.62066,3.97147 2.2712,5.0609 1.52814,10.3949 -1.89622,13.61192 -1.86017,1.74754 -7.43934,1.92655 -11.51493,0.36946 z"
         style="opacity:0;fill:#000000;fill-opacity:1;fill-rule:nonzero;stroke:#000000;stroke-width:0.5;stroke-linecap:butt;stroke-linejoin:miter;stroke-miterlimit:4;stroke-opacity:1;stroke-dasharray:none;stroke-dashoffset:0" />
      <path
         id="path3642"
         d="m 439.74443,354.23713 c -2.93773,-1.12236 -7.01366,-3.61216 -8.09273,-4.94347 -0.29743,-0.36695 -1.05125,-3.07635 -1.67516,-6.02087 -1.31443,-6.20351 -1.26974,-6.33599 2.77346,-8.22101 4.01154,-1.87025 10.69066,-1.37981 16.78492,1.2325 1.98901,0.85259 2.44589,1.35373 3.62066,3.97147 2.2712,5.0609 1.52814,10.3949 -1.89622,13.61192 -1.86017,1.74754 -7.43934,1.92655 -11.51493,0.36946 z"
         style="opacity:0;fill:#000000;fill-opacity:1;fill-rule:nonzero;stroke:#000000;stroke-width:0.5;stroke-linecap:butt;stroke-linejoin:miter;stroke-miterlimit:4;stroke-opacity:1;stroke-dasharray:none;stroke-dashoffset:0" />
      <path
         id="path3644"
         d="m 439.74443,354.23713 c -2.93773,-1.12236 -7.01366,-3.61216 -8.09273,-4.94347 -0.29743,-0.36695 -1.05125,-3.07635 -1.67516,-6.02087 -1.31443,-6.20351 -1.26974,-6.33599 2.77346,-8.22101 4.01154,-1.87025 10.69066,-1.37981 16.78492,1.2325 1.98901,0.85259 2.44589,1.35373 3.62066,3.97147 2.2712,5.0609 1.52814,10.3949 -1.89622,13.61192 -1.86017,1.74754 -7.43934,1.92655 -11.51493,0.36946 z"
         style="opacity:0;fill:#000000;fill-opacity:1;fill-rule:nonzero;stroke:#000000;stroke-width:0.5;stroke-linecap:butt;stroke-linejoin:miter;stroke-miterlimit:4;stroke-opacity:1;stroke-dasharray:none;stroke-dashoffset:0" />
      <path
         id="path3646"
         d="m 439.74443,354.23713 c -2.93773,-1.12236 -7.01366,-3.61216 -8.09273,-4.94347 -0.29743,-0.36695 -1.05125,-3.07635 -1.67516,-6.02087 -1.31443,-6.20351 -1.26974,-6.33599 2.77346,-8.22101 4.01154,-1.87025 10.69066,-1.37981 16.78492,1.2325 1.98901,0.85259 2.44589,1.35373 3.62066,3.97147 2.2712,5.0609 1.52814,10.3949 -1.89622,13.61192 -1.86017,1.74754 -7.43934,1.92655 -11.51493,0.36946 z"
         style="opacity:0;fill:#000000;fill-opacity:1;fill-rule:nonzero;stroke:#000000;stroke-width:0.5;stroke-linecap:butt;stroke-linejoin:miter;stroke-miterlimit:4;stroke-opacity:1;stroke-dasharray:none;stroke-dashoffset:0" />
      <path
         id="path3648"
         d="m 439.74443,354.23713 c -2.93773,-1.12236 -7.01366,-3.61216 -8.09273,-4.94347 -0.29743,-0.36695 -1.05125,-3.07635 -1.67516,-6.02087 -1.31443,-6.20351 -1.26974,-6.33599 2.77346,-8.22101 4.01154,-1.87025 10.69066,-1.37981 16.78492,1.2325 1.98901,0.85259 2.44589,1.35373 3.62066,3.97147 2.2712,5.0609 1.52814,10.3949 -1.89622,13.61192 -1.86017,1.74754 -7.43934,1.92655 -11.51493,0.36946 z"
         style="opacity:0;fill:#000000;fill-opacity:1;fill-rule:nonzero;stroke:#000000;stroke-width:0.5;stroke-linecap:butt;stroke-linejoin:miter;stroke-miterlimit:4;stroke-opacity:1;stroke-dasharray:none;stroke-dashoffset:0" />
      <path
         id="path3650"
         d="m 439.74443,354.23713 c -2.93773,-1.12236 -7.01366,-3.61216 -8.09273,-4.94347 -0.29743,-0.36695 -1.05125,-3.07635 -1.67516,-6.02087 -1.31443,-6.20351 -1.26974,-6.33599 2.77346,-8.22101 4.01154,-1.87025 10.69066,-1.37981 16.78492,1.2325 1.98901,0.85259 2.44589,1.35373 3.62066,3.97147 2.2712,5.0609 1.52814,10.3949 -1.89622,13.61192 -1.86017,1.74754 -7.43934,1.92655 -11.51493,0.36946 z"
         style="opacity:0;fill:#000000;fill-opacity:1;fill-rule:nonzero;stroke:#000000;stroke-width:0.5;stroke-linecap:butt;stroke-linejoin:miter;stroke-miterlimit:4;stroke-opacity:1;stroke-dasharray:none;stroke-dashoffset:0" />
      <path
         id="path3652"
         d="m 439.74443,354.23713 c -2.93773,-1.12236 -7.01366,-3.61216 -8.09273,-4.94347 -0.29743,-0.36695 -1.05125,-3.07635 -1.67516,-6.02087 -1.31443,-6.20351 -1.26974,-6.33599 2.77346,-8.22101 4.01154,-1.87025 10.69066,-1.37981 16.78492,1.2325 1.98901,0.85259 2.44589,1.35373 3.62066,3.97147 2.2712,5.0609 1.52814,10.3949 -1.89622,13.61192 -1.86017,1.74754 -7.43934,1.92655 -11.51493,0.36946 z"
         style="opacity:0;fill:#000000;fill-opacity:1;fill-rule:nonzero;stroke:#000000;stroke-width:0.5;stroke-linecap:butt;stroke-linejoin:miter;stroke-miterlimit:4;stroke-opacity:1;stroke-dasharray:none;stroke-dashoffset:0" />
      <path
         id="path3654"
         d="m 439.74443,354.23713 c -2.93773,-1.12236 -7.01366,-3.61216 -8.09273,-4.94347 -0.29743,-0.36695 -1.05125,-3.07635 -1.67516,-6.02087 -1.31443,-6.20351 -1.26974,-6.33599 2.77346,-8.22101 4.01154,-1.87025 10.69066,-1.37981 16.78492,1.2325 1.98901,0.85259 2.44589,1.35373 3.62066,3.97147 2.2712,5.0609 1.52814,10.3949 -1.89622,13.61192 -1.86017,1.74754 -7.43934,1.92655 -11.51493,0.36946 z"
         style="opacity:0;fill:#000000;fill-opacity:1;fill-rule:nonzero;stroke:#000000;stroke-width:0.5;stroke-linecap:butt;stroke-linejoin:miter;stroke-miterlimit:4;stroke-opacity:1;stroke-dasharray:none;stroke-dashoffset:0" />
      <path
         id="path3656"
         d="m 439.74443,354.23713 c -2.93773,-1.12236 -7.01366,-3.61216 -8.09273,-4.94347 -0.29743,-0.36695 -1.05125,-3.07635 -1.67516,-6.02087 -1.31443,-6.20351 -1.26974,-6.33599 2.77346,-8.22101 4.01154,-1.87025 10.69066,-1.37981 16.78492,1.2325 1.98901,0.85259 2.44589,1.35373 3.62066,3.97147 2.2712,5.0609 1.52814,10.3949 -1.89622,13.61192 -1.86017,1.74754 -7.43934,1.92655 -11.51493,0.36946 z"
         style="opacity:0;fill:#f2f2f2;fill-opacity:1;fill-rule:nonzero;stroke:#000000;stroke-width:0.5;stroke-linecap:butt;stroke-linejoin:miter;stroke-miterlimit:4;stroke-opacity:1;stroke-dasharray:none;stroke-dashoffset:0" />
      <path
         id="path3658"
         d="m 439.74443,354.23713 c -2.93773,-1.12236 -7.01366,-3.61216 -8.09273,-4.94347 -0.29743,-0.36695 -1.05125,-3.07635 -1.67516,-6.02087 -1.31443,-6.20351 -1.26974,-6.33599 2.77346,-8.22101 4.01154,-1.87025 10.69066,-1.37981 16.78492,1.2325 1.98901,0.85259 2.44589,1.35373 3.62066,3.97147 2.2712,5.0609 1.52814,10.3949 -1.89622,13.61192 -1.86017,1.74754 -7.43934,1.92655 -11.51493,0.36946 z"
         style="opacity:0;fill:#f2f2f2;fill-opacity:1;fill-rule:nonzero;stroke:#000000;stroke-width:0.5;stroke-linecap:butt;stroke-linejoin:miter;stroke-miterlimit:4;stroke-opacity:1;stroke-dasharray:none;stroke-dashoffset:0" />
      <path
         id="path3660"
         d="m 439.74443,354.23713 c -2.93773,-1.12236 -7.01366,-3.61216 -8.09273,-4.94347 -0.29743,-0.36695 -1.05125,-3.07635 -1.67516,-6.02087 -1.31443,-6.20351 -1.26974,-6.33599 2.77346,-8.22101 4.01154,-1.87025 10.69066,-1.37981 16.78492,1.2325 1.98901,0.85259 2.44589,1.35373 3.62066,3.97147 2.2712,5.0609 1.52814,10.3949 -1.89622,13.61192 -1.86017,1.74754 -7.43934,1.92655 -11.51493,0.36946 z"
         style="opacity:0;fill:#f2f2f2;fill-opacity:1;fill-rule:nonzero;stroke:#000000;stroke-width:0.5;stroke-linecap:butt;stroke-linejoin:miter;stroke-miterlimit:4;stroke-opacity:1;stroke-dasharray:none;stroke-dashoffset:0" />
      <path
         id="path3662"
         d="m 439.74443,354.23713 c -2.93773,-1.12236 -7.01366,-3.61216 -8.09273,-4.94347 -0.29743,-0.36695 -1.05125,-3.07635 -1.67516,-6.02087 -1.31443,-6.20351 -1.26974,-6.33599 2.77346,-8.22101 4.01154,-1.87025 10.69066,-1.37981 16.78492,1.2325 1.98901,0.85259 2.44589,1.35373 3.62066,3.97147 2.2712,5.0609 1.52814,10.3949 -1.89622,13.61192 -1.86017,1.74754 -7.43934,1.92655 -11.51493,0.36946 z"
         style="opacity:0;fill:#f2f2f2;fill-opacity:1;fill-rule:nonzero;stroke:#000000;stroke-width:0.5;stroke-linecap:butt;stroke-linejoin:miter;stroke-miterlimit:4;stroke-opacity:1;stroke-dasharray:none;stroke-dashoffset:0" />
      <path
         id="path3666"
         d="m 439.74443,354.23713 c -2.93773,-1.12236 -7.01366,-3.61216 -8.09273,-4.94347 -0.29743,-0.36695 -1.05125,-3.07635 -1.67516,-6.02087 -1.31443,-6.20351 -1.26974,-6.33599 2.77346,-8.22101 4.01154,-1.87025 10.69066,-1.37981 16.78492,1.2325 1.98901,0.85259 2.44589,1.35373 3.62066,3.97147 2.2712,5.0609 1.52814,10.3949 -1.89622,13.61192 -1.86017,1.74754 -7.43934,1.92655 -11.51493,0.36946 z"
         style="opacity:0;fill:#0d0000;fill-opacity:1;fill-rule:nonzero;stroke:#000000;stroke-width:0.5;stroke-linecap:butt;stroke-linejoin:miter;stroke-miterlimit:4;stroke-opacity:1;stroke-dasharray:none;stroke-dashoffset:0" />
      <path
         id="path3668"
         d="m 439.74443,354.23713 c -2.93773,-1.12236 -7.01366,-3.61216 -8.09273,-4.94347 -0.29743,-0.36695 -1.05125,-3.07635 -1.67516,-6.02087 -1.31443,-6.20351 -1.26974,-6.33599 2.77346,-8.22101 4.01154,-1.87025 10.69066,-1.37981 16.78492,1.2325 1.98901,0.85259 2.44589,1.35373 3.62066,3.97147 2.2712,5.0609 1.52814,10.3949 -1.89622,13.61192 -1.86017,1.74754 -7.43934,1.92655 -11.51493,0.36946 z"
         style="opacity:0;fill:#0d0000;fill-opacity:1;fill-rule:nonzero;stroke:#000000;stroke-width:0.5;stroke-linecap:butt;stroke-linejoin:miter;stroke-miterlimit:4;stroke-opacity:1;stroke-dasharray:none;stroke-dashoffset:0" />
      <path
         id="path3670"
         d="m 439.74443,354.23713 c -2.93773,-1.12236 -7.01366,-3.61216 -8.09273,-4.94347 -0.29743,-0.36695 -1.05125,-3.07635 -1.67516,-6.02087 -1.31443,-6.20351 -1.26974,-6.33599 2.77346,-8.22101 4.01154,-1.87025 10.69066,-1.37981 16.78492,1.2325 1.98901,0.85259 2.44589,1.35373 3.62066,3.97147 2.2712,5.0609 1.52814,10.3949 -1.89622,13.61192 -1.86017,1.74754 -7.43934,1.92655 -11.51493,0.36946 z"
         style="opacity:0;fill:#0d0000;fill-opacity:1;fill-rule:nonzero;stroke:#000000;stroke-width:0.5;stroke-linecap:butt;stroke-linejoin:miter;stroke-miterlimit:4;stroke-opacity:1;stroke-dasharray:none;stroke-dashoffset:0" />
      <path
         id="path3672"
         d="m 439.74443,354.23713 c -2.93773,-1.12236 -7.01366,-3.61216 -8.09273,-4.94347 -0.29743,-0.36695 -1.05125,-3.07635 -1.67516,-6.02087 -1.31443,-6.20351 -1.26974,-6.33599 2.77346,-8.22101 4.01154,-1.87025 10.69066,-1.37981 16.78492,1.2325 1.98901,0.85259 2.44589,1.35373 3.62066,3.97147 2.2712,5.0609 1.52814,10.3949 -1.89622,13.61192 -1.86017,1.74754 -7.43934,1.92655 -11.51493,0.36946 z"
         style="opacity:0;fill:#0d0000;fill-opacity:1;fill-rule:nonzero;stroke:#000000;stroke-width:0.5;stroke-linecap:butt;stroke-linejoin:miter;stroke-miterlimit:4;stroke-opacity:1;stroke-dasharray:none;stroke-dashoffset:0" />
      <path
         id="path3674"
         d="m 439.74443,354.23713 c -2.93773,-1.12236 -7.01366,-3.61216 -8.09273,-4.94347 -0.29743,-0.36695 -1.05125,-3.07635 -1.67516,-6.02087 -1.31443,-6.20351 -1.26974,-6.33599 2.77346,-8.22101 4.01154,-1.87025 10.69066,-1.37981 16.78492,1.2325 1.98901,0.85259 2.44589,1.35373 3.62066,3.97147 2.2712,5.0609 1.52814,10.3949 -1.89622,13.61192 -1.86017,1.74754 -7.43934,1.92655 -11.51493,0.36946 z"
         style="opacity:0;fill:#0d0000;fill-opacity:1;fill-rule:nonzero;stroke:#000000;stroke-width:0.5;stroke-linecap:butt;stroke-linejoin:miter;stroke-miterlimit:4;stroke-opacity:1;stroke-dasharray:none;stroke-dashoffset:0" />
      <path
         id="path3676"
         d="m 439.74443,354.23713 c -2.93773,-1.12236 -7.01366,-3.61216 -8.09273,-4.94347 -0.29743,-0.36695 -1.05125,-3.07635 -1.67516,-6.02087 -1.31443,-6.20351 -1.26974,-6.33599 2.77346,-8.22101 4.01154,-1.87025 10.69066,-1.37981 16.78492,1.2325 1.98901,0.85259 2.44589,1.35373 3.62066,3.97147 2.2712,5.0609 1.52814,10.3949 -1.89622,13.61192 -1.86017,1.74754 -7.43934,1.92655 -11.51493,0.36946 z"
         style="opacity:0;fill:#0d0000;fill-opacity:1;fill-rule:nonzero;stroke:#000000;stroke-width:0.5;stroke-linecap:butt;stroke-linejoin:miter;stroke-miterlimit:4;stroke-opacity:1;stroke-dasharray:none;stroke-dashoffset:0" />
      <path
         transform="translate(347,65.5)"
         sodipodi:end="7.685886"
         sodipodi:start="1.427471"
         d="m 119.14272,279.79041 a 6.25,7 0 1 1 0.15294,-0.0269 L 118.25,272.86218 z"
         sodipodi:ry="7"
         sodipodi:rx="6.25"
         sodipodi:cy="272.86218"
         sodipodi:cx="118.25"
         id="path3694"
         style="fill:#000102;fill-opacity:1;fill-rule:nonzero;stroke:#000000;stroke-width:1;stroke-linecap:butt;stroke-linejoin:miter;stroke-miterlimit:4;stroke-opacity:1;stroke-dasharray:none;stroke-dashoffset:0"
         sodipodi:type="arc" />
      <path
         id="path3696"
         d="m 376.5,438.86218 -18,44 3,40.5"
         style="fill:none;stroke:#000000;stroke-width:1px;stroke-linecap:butt;stroke-linejoin:miter;stroke-opacity:1" />
    </g>
  </g>
</svg>
